<?xml version="1.0" standalone="no"?>
<!DOCTYPE svg PUBLIC "-//W3C//DTD SVG 20010904//EN"
 "http://www.w3.org/TR/2001/REC-SVG-20010904/DTD/svg10.dtd">
<svg version="1.0" xmlns="http://www.w3.org/2000/svg"
 width="1280.000000pt" height="1280.000000pt" viewBox="0 0 1280.000000 1280.000000"
 preserveAspectRatio="xMidYMid meet">
<metadata>
Created by potrace 1.15, written by Peter Selinger 2001-2017
</metadata>
<g transform="translate(0.000000,1280.000000) scale(0.100000,-0.100000)"
fill="#000000" stroke="none">
<path d="M5344 11853 c-30 -32 -65 -74 -79 -94 l-25 -35 15 -385 c8 -211 17
-456 20 -544 3 -88 14 -396 25 -685 10 -289 22 -626 26 -750 l7 -225 -54 -19
c-145 -49 -486 -234 -647 -351 -364 -262 -617 -631 -712 -1040 -33 -143 -43
-265 -37 -458 8 -262 46 -425 147 -632 205 -420 588 -712 1100 -839 211 -52
367 -68 745 -76 375 -9 447 -17 572 -67 39 -15 74 -38 94 -61 28 -31 31 -41
26 -80 -8 -75 -64 -128 -180 -171 -108 -40 -225 -53 -507 -56 -279 -4 -380 2
-625 36 -308 42 -573 116 -853 238 -210 91 -275 99 -300 34 -11 -30 -222
-1577 -222 -1630 0 -27 8 -39 53 -72 67 -51 115 -71 313 -131 230 -70 558
-150 839 -204 132 -26 251 -49 263 -52 l24 -5 -7 -222 c-8 -316 -44 -1801 -47
-1993 l-3 -161 62 -69 c106 -120 56 -110 414 -80 172 15 321 32 331 37 10 5
21 21 24 36 4 14 5 563 2 1219 l-5 1194 23 0 c12 0 29 3 37 6 13 4 16 -36 21
-288 7 -355 16 -1287 16 -1678 l0 -285 84 -81 c46 -45 93 -85 105 -89 12 -4
135 23 313 70 315 81 328 87 328 149 0 17 -4 137 -10 266 -5 129 -12 305 -15
390 -3 85 -8 209 -10 275 -3 66 -12 309 -20 540 -9 231 -20 521 -25 645 -4
124 -5 228 -2 231 4 3 58 22 119 42 595 190 1038 515 1298 950 157 263 241
550 267 903 36 505 -102 911 -408 1204 -232 221 -535 357 -900 405 -94 12
-202 15 -505 13 -424 -3 -488 4 -599 59 -67 34 -91 66 -92 122 0 50 24 82 92
116 116 58 131 60 460 60 245 0 328 -4 420 -18 207 -33 474 -96 730 -174 l115
-35 100 12 c72 8 105 16 119 30 16 16 26 104 88 789 58 639 68 774 57 787 -19
23 -184 103 -323 159 -224 88 -598 181 -934 231 l-114 17 6 81 c3 45 8 169 11
276 3 107 14 461 25 785 11 325 22 669 25 765 3 96 8 231 11 300 5 112 4 128
-13 148 -16 20 -55 29 -343 78 -227 38 -331 52 -345 46 -11 -5 -55 -42 -98
-82 l-79 -74 4 -1143 3 -1143 -22 0 -23 0 0 1195 c0 1153 -1 1196 -19 1214
-13 13 -121 43 -352 100 -184 45 -342 81 -352 81 -10 0 -43 -26 -73 -57z"/>
</g>
</svg>
